<?xml version="1.0" encoding="UTF-8"?>
<svg version="1.1" xmlns="http://www.w3.org/2000/svg" width="512" height="512">
<path d="M0 0 C168.96 0 337.92 0 512 0 C512 168.96 512 337.92 512 512 C343.04 512 174.08 512 0 512 C0 343.04 0 174.08 0 0 Z " fill="#FEFEFE" transform="translate(0,0)"/>
<path d="M0 0 C77.88 0 155.76 0 236 0 C236 168.96 236 337.92 236 512 C156.47 512 76.94 512 -5 512 C-4.67 509.03 -4.34 506.06 -4 503 C-4.66902344 502.85304688 -5.33804688 502.70609375 -6.02734375 502.5546875 C-9.37290528 501.77330803 -12.68348075 500.89700676 -16 500 C-16.69561035 499.82259277 -17.3912207 499.64518555 -18.10791016 499.46240234 C-28.38935776 496.7632648 -34.36309851 494.22018148 -39.9453125 484.8046875 C-41.12777629 481.66020972 -41.28509221 481.01702425 -40 478 C-38.69535908 476.70540865 -37.38188209 475.4173318 -36.0072937 474.19726562 C-28.090427 467.14405441 -24.557056 459.77359707 -20.875 450 C-20.26222669 448.44608388 -19.64616419 446.89346148 -19.02709961 445.34204102 C-17.70272784 442.01346966 -16.39438304 438.67919688 -15.09619141 435.34033203 C-11.75306568 426.7775269 -8.22832576 418.2880256 -4.73223877 409.78686523 C-3.59762333 407.02305689 -2.4683222 404.25715025 -1.34130859 401.49023438 C2.53548016 391.9760788 6.44899381 382.48137178 10.50352478 373.04124451 C10.81697342 372.30519485 11.13042206 371.5691452 11.45336914 370.81079102 C11.72879044 370.16900406 12.00421173 369.5272171 12.28797913 368.86598206 C13.76862187 364.9856846 14.16013276 361.52387313 14.1875 357.375 C14.20167969 356.41335938 14.21585937 355.45171875 14.23046875 354.4609375 C13.59556997 344.92669475 10.7251284 337.67842182 6.1875 329.3125 C5.61 328.22525635 5.0325 327.1380127 4.4375 326.01782227 C0.05293907 317.81400917 -4.49187505 309.70149016 -9.10693359 301.62548828 C-13.70906715 293.56862528 -18.13836197 285.42503106 -22.51171875 277.24194336 C-27.86491269 266.38842438 -27.86491269 266.38842438 -35.14135742 256.90283203 C-37.75792229 254.22405802 -37.5991773 252.25346652 -37.75 248.5625 C-37.80542969 247.33402344 -37.86085937 246.10554687 -37.91796875 244.83984375 C-38.03793141 239.22444869 -38.08396236 233.61614872 -38 228 C-37.43732422 228.09023437 -36.87464844 228.18046875 -36.29492188 228.2734375 C-33.40999519 228.39939568 -31.6603181 228.17255727 -29 227 C-25.73008382 222.72297514 -23.67705339 217.89001236 -21.5 213 C-20.8570455 211.62090741 -20.21054739 210.24346145 -19.56054688 208.86767578 C-18.59377822 206.81879988 -17.63015158 204.76896754 -16.68029785 202.71218872 C-13.85793996 196.60426937 -10.70429006 190.70724621 -7.34960938 184.875 C-5.45520286 181.48419094 -5.45520286 181.48419094 -5.1796875 177.69140625 C-5.9825796 175.8608399 -5.9825796 175.8608399 -7.625 174.0625 C-9 172 -9 172 -9.0625 169.625 C-7.6007144 166.01352969 -5.39878555 163.00017026 -2 161 C3.81912673 161.04209133 9.22635936 165.55172587 13.96679688 168.58203125 C19.95773115 172.14090114 24.22640752 172.54432293 31 171 C33.95147713 170.22175268 33.95147713 170.22175268 36.375 169.125 C37.16648437 168.79757813 37.95796875 168.47015625 38.7734375 168.1328125 C43.37324186 165.79256116 45.45622595 163.73636634 47.359375 158.89453125 C47.75253906 157.91162109 48.14570313 156.92871094 48.55078125 155.91601562 C48.94652344 154.89185547 49.34226562 153.86769531 49.75 152.8125 C50.36681641 151.25885742 50.36681641 151.25885742 50.99609375 149.67382812 C52.008237 147.11993178 53.0090134 144.5621635 54 142 C54.99 142 55.98 142 57 142 C58.13764351 146.26616316 59 149.56486311 59 154 C68.9 151.69 78.8 149.38 89 147 C88.2804303 140.7705334 88.2804303 140.7705334 87.02734375 134.78125 C86.85009766 134.07613281 86.67285156 133.37101563 86.49023438 132.64453125 C86.12150025 131.21389497 85.74909711 129.78419939 85.37304688 128.35546875 C83.45956628 120.68752818 83.15082456 115.18199808 87 108 C87.62498494 105.37987081 88.17065247 102.83355807 88.625 100.1875 C89.88538062 93.11461938 89.88538062 93.11461938 91 92 C93.55589888 91.90493948 96.08467972 91.87443239 98.64086914 91.88647461 C99.84077736 91.88625557 99.84077736 91.88625557 101.06492615 91.8860321 C103.72169665 91.88673145 106.37839793 91.89452482 109.03515625 91.90234375 C110.87218691 91.90420785 112.70921806 91.90563179 114.54624939 91.90663147 C119.39109662 91.91045725 124.23591408 91.92028804 129.08074951 91.93133545 C134.02062578 91.94154828 138.96050685 91.94612881 143.90039062 91.95117188 C153.60027563 91.96191026 163.30013069 91.97950754 173 92 C173 86.72 173 81.44 173 76 C183.56 76 194.12 76 205 76 C205 73.36 205 70.72 205 68 C194.44 68 183.88 68 173 68 C172.67 64.04 172.34 60.08 172 56 C170.68 56.33 169.36 56.66 168 57 C166.68 59.31 165.36 61.62 164 64 C117.47 64 70.94 64 23 64 C23 62.02 23 60.04 23 58 C27.455 57.505 27.455 57.505 32 57 C32.67189656 54.08444885 33.33769308 51.16773049 34 48.25 C34.19078125 47.425 34.3815625 46.6 34.578125 45.75 C34.84882813 44.55117187 34.84882813 44.55117187 35.125 43.328125 C35.29257812 42.5949707 35.46015625 41.86181641 35.6328125 41.10644531 C36.11448443 38.69960511 36.11448443 38.69960511 36 35 C35.2575 34.608125 34.515 34.21625 33.75 33.8125 C30.21935662 31.48548504 29.63872861 29.28917061 28.08203125 25.46875 C22.34959491 12.38968947 12.81332843 6.33237601 0 1 C0 0.67 0 0.34 0 0 Z " fill="#28397F" transform="translate(276,0)"/>
<path d="M0 0 C79.86 0 159.72 0 242 0 C237 4 237 4 234.97265625 5.5 C228.1815462 10.83289624 223.70317589 17.85603372 222.52075195 26.50585938 C222.41323168 30.10594307 222.4726353 33.65184903 222.625 37.25 C222.65207031 38.48363281 222.67914063 39.71726563 222.70703125 40.98828125 C222.77693398 43.99409884 222.87499595 46.99605654 223 50 C223.94875 50.309375 224.8975 50.61875 225.875 50.9375 C229 52 229 52 231 53 C229.94124926 56.40312738 228.99097846 59.01353231 227 62 C224.14537757 62.22920326 221.41718122 62.31192405 218.5625 62.3125 C206.63940441 62.69153414 199.32613285 66.82981884 190.98046875 75.43847656 C175.36292266 92.47275719 167.08331073 116.08166969 158 137 C153.05 137.33 148.1 137.66 143 138 C142.65743164 139.03817871 142.31486328 140.07635742 141.96191406 141.14599609 C140.6753489 145.04222425 139.38464918 148.93707275 138.09277344 152.83154297 C137.53697832 154.50891074 136.98226617 156.1866378 136.42871094 157.86474609 C130.85971712 174.74261725 130.85971712 174.74261725 127.83227539 181.99121094 C125.03093797 188.28910483 125.03093797 188.28910483 124.046875 194.9921875 C125.55959938 198.17882821 128.12474618 199.39457653 131.0625 201.25 C132.16722656 201.95640625 133.27195313 202.6628125 134.41015625 203.390625 C135.26480469 203.92171875 136.11945313 204.4528125 137 205 C136.44540025 210.59584916 135.4537877 215.58358565 133.5625 220.875 C133.36462891 221.51824219 133.16675781 222.16148437 132.96289062 222.82421875 C131.27073607 227.5510637 128.92017843 230.13062996 125.1875 233.4765625 C118.58005981 239.77666585 116.28532637 247.0519207 113.4375 255.5 C112.91605646 256.98010117 112.39198154 258.45927801 111.86523438 259.9375 C110.91247227 262.61769229 109.97639237 265.30253933 109.05639648 267.99414062 C108 271 108 271 107 273 C104.75 273.37890625 104.75 273.37890625 102 273.5625 C98.69240381 273.53480538 98.69240381 273.53480538 96 275 C95.76928028 276.76439636 95.60156802 278.53707583 95.45922852 280.31079102 C95.36565567 281.44609756 95.27208282 282.58140411 95.17567444 283.75111389 C95.07774094 284.98953537 94.97980743 286.22795685 94.87890625 287.50390625 C94.66350752 290.10742982 94.44800954 292.71094519 94.23242188 295.31445312 C93.89588608 299.43309879 93.56325582 303.55205502 93.23217773 307.67114258 C92.91293288 311.63680301 92.58318491 315.60156636 92.25390625 319.56640625 C92.15799698 320.79065811 92.06208771 322.01490997 91.96327209 323.27626038 C91.45020392 329.41542334 90.60420388 335.05985981 89 341 C88.91143799 342.52688017 88.85336737 344.05649217 88.8515625 345.5859375 C88.47643742 349.37129055 87.50165284 350.97133622 84.6484375 353.4765625 C83.24347605 354.55203018 81.81806222 355.60122324 80.375 356.625 C77.55923999 358.71996693 74.76391126 360.83699681 72 363 C71.40477539 363.45987305 70.80955078 363.91974609 70.19628906 364.39355469 C59.36682633 373.87010328 54.49124466 391.51915624 49.0625 404.5 C47.58493137 408.0215058 46.10525002 411.54212058 44.625 415.0625 C44.24896133 415.95835815 43.87292267 416.85421631 43.48548889 417.77722168 C41.16831433 423.28133018 38.80101806 428.76047389 36.38697815 434.22277832 C34.81189831 437.78758139 33.2517846 441.35885584 31.69210815 444.93041992 C30.95049455 446.61740806 30.20178731 448.3012991 29.44534302 449.98168945 C21.77905009 466.65051626 21.77905009 466.65051626 21.65625 484.57495117 C22.15844835 488.11780358 20.80791326 489.89784881 19.03515625 492.95703125 C18.40029297 494.06884766 17.76542969 495.18066406 17.11132812 496.32617188 C16.42869651 497.48846401 15.74574976 498.65057112 15.0625 499.8125 C14.38213913 500.99337855 13.70308724 502.17501231 13.02539062 503.35742188 C11.36299834 506.24597585 9.68759286 509.12612025 8 512 C5.36 512 2.72 512 0 512 C0 343.04 0 174.08 0 0 Z " fill="#FBAC18" transform="translate(0,0)"/>
<path d="M0 0 C4.3644133 0.83931025 5.06021297 2.60431634 7.55908203 6.09716797 C10.81280572 10.96131107 13.80019268 15.98425527 16.8125 21 C29.78400167 44.81620229 29.78400167 44.81620229 49.125 62.5625 C49.90617188 62.96339844 50.68734375 63.36429687 51.4921875 63.77734375 C52.07226562 64.05707031 52.65234375 64.33679688 53.25 64.625 C52.65122406 68.5399717 51.4539471 71.47592232 49.5546875 74.94140625 C49.00683594 75.94631104 48.45898438 76.95121582 47.89453125 77.98657227 C47.31058594 79.04287842 46.72664062 80.09918457 46.125 81.1875 C45.23748047 82.82319946 45.23748047 82.82319946 44.33203125 84.49194336 C39.4272149 93.48298377 39.4272149 93.48298377 37.0078125 97.0625 C29.47675704 108.30887615 28.28148175 122.44287173 26.078125 135.53125 C23.66333186 149.817707 20.52468067 163.36763504 16.03710938 177.14355469 C14.20907589 182.90662304 12.74812645 188.76937885 11.25 194.625 C11.04761719 195.34945312 10.84523437 196.07390625 10.63671875 196.8203125 C8.83306413 203.40158661 8.23891239 209.70261329 7.25 216.625 C-34.99 216.625 -77.23 216.625 -120.75 216.625 C-120.75 203.70343137 -120.75 203.70343137 -120.4375 198.875 C-120.37949219 197.84890625 -120.32148437 196.8228125 -120.26171875 195.765625 C-119.02712092 188.18839862 -115.13942026 183.14756823 -110.4375 177.3125 C-109.17169505 175.71368412 -107.90607524 174.11472165 -106.640625 172.515625 C-105.99416016 171.70416016 -105.34769531 170.89269531 -104.68164062 170.05664062 C-101.65544332 166.24712026 -98.67146172 162.40513161 -95.6875 158.5625 C-95.10830811 157.81830811 -94.52911621 157.07411621 -93.93237305 156.30737305 C-89.47251194 150.57237645 -85.05632079 144.80492202 -80.65087891 139.02807617 C-76.65029661 133.78771427 -72.61399629 128.57607477 -68.5625 123.375 C-67.9744458 122.61936768 -67.3863916 121.86373535 -66.78051758 121.08520508 C-62.28794613 115.31282077 -62.28794613 115.31282077 -60.30761719 112.78076172 C-59.86321289 112.21244629 -59.41880859 111.64413086 -58.9609375 111.05859375 C-58.58372559 110.57704834 -58.20651367 110.09550293 -57.81787109 109.59936523 C-49.33632288 98.62015558 -42.02463199 88.12508566 -36.5625 75.3125 C-36.01641766 74.060313 -35.46901741 72.80870004 -34.92041016 71.55761719 C-33.77121429 68.93079515 -32.63010442 66.30068266 -31.49560547 63.66748047 C-29.74454743 59.60544375 -27.97037134 55.55378462 -26.19140625 51.50390625 C-23.83360045 46.13235826 -21.47961802 40.75917655 -19.1328125 35.3828125 C-18.85012009 34.73523483 -18.56742767 34.08765717 -18.27616882 33.42045593 C-16.60857658 29.59838735 -14.94608412 25.77414076 -13.28701782 21.94836426 C-12.02788987 19.04751137 -10.76330284 16.14903667 -9.5 13.25 C-9.04608887 12.19780273 -8.59217773 11.14560547 -8.12451172 10.06152344 C-7.7070166 9.10536133 -7.28952148 8.14919922 -6.859375 7.1640625 C-6.49811523 6.33084473 -6.13685547 5.49762695 -5.76464844 4.63916016 C-4.25809997 1.6485382 -3.2937637 0.74858266 0 0 Z " fill="#FBAC18" transform="translate(178.75,295.375)"/>
</svg>
